<svg xmlns="http://www.w3.org/2000/svg" version="1.1" xmlns:xlink="http://www.w3.org/1999/xlink" xmlns:svgjs="http://svgjs.dev/svgjs" width="1000" height="1000" viewBox="0 0 1000 1000"><rect width="1000" height="1000" fill="#000000"></rect><g transform="matrix(0.7,0,0,0.7,149.57575757575756,389.66610494185227)"><svg viewBox="0 0 396 125" data-background-color="#333333" preserveAspectRatio="xMidYMid meet" height="315" width="1000" xmlns="http://www.w3.org/2000/svg" xmlns:xlink="http://www.w3.org/1999/xlink"><g id="tight-bounds" transform="matrix(1,0,0,1,0.2400000000000091,0.04755955677308066)"><svg viewBox="0 0 395.52 124.9045735443465" height="124.9045735443465" width="395.52"><g><svg viewBox="0 0 635.255029242058 200.61250636979324" height="124.9045735443465" width="395.52"><g transform="matrix(1,0,0,1,239.73502924205798,58.87624455180309)"><svg viewBox="0 0 395.52 82.86001726618706" height="82.86001726618706" width="395.52"><g><svg viewBox="0 0 395.52 82.86001726618706" height="82.86001726618706" width="395.52"><g><svg viewBox="0 0 395.52 82.86001726618706" height="82.86001726618706" width="395.52"><g transform="matrix(1,0,0,1,0,0)"><svg width="395.52" viewBox="0.45000001788139343 -35.70000076293945 173.74000549316406 36.400001525878906" height="82.86001726618706" data-palette-color="#7fc37e"><path d="M8.85 0L8.85-29.4 0.45-29.4 0.45-35 23.35-35 23.35-29.4 14.95-29.4 14.95 0 8.85 0ZM26.8 0L26.8-35 32.9-35 32.9 0 26.8 0ZM39.2 0L39.2-35 45.45-35 57.05-13.1 57.05-35 63.15-35 63.15 0 57.8 0 45.3-23.3 45.3 0 39.2 0ZM86.59-35L93.09-35 82.59-15.5 82.59 0 76.54 0 76.54-15.5 66.04-35 72.54-35 79.59-21.15 86.59-35ZM125.89 0L119.59 0 117.04-22.5 109.59-7.05 102.14-22.5 99.59 0 93.29 0 97.69-35 102.64-35 109.59-19.65 116.54-35 121.49-35 125.89 0ZM130.74 0L130.74-35 140.94-35Q146.39-35 149.54-32.08 152.69-29.15 152.69-23.4L152.69-23.4Q152.69-17.65 149.54-14.73 146.39-11.8 140.94-11.8L140.94-11.8 136.84-11.8 136.84 0 130.74 0ZM136.84-17.1L140.39-17.1Q143.34-17.1 144.86-18.55 146.39-20 146.39-23.4L146.39-23.4Q146.39-26.6 144.81-28.15 143.24-29.7 140.39-29.7L140.39-29.7 136.84-29.7 136.84-17.1ZM168.19-18.55Q170.99-17.6 172.59-15.38 174.19-13.15 174.19-9.95L174.19-9.95Q174.19-4.9 171.21-2.1 168.24 0.7 163.24 0.7L163.24 0.7Q158.44 0.7 154.88-1.45L154.88-1.45 156.44-6.85Q157.88-5.8 159.36-5.3 160.84-4.8 162.59-4.8L162.59-4.8Q165.09-4.8 166.49-6.1 167.88-7.4 167.88-9.95L167.88-9.95Q167.88-12.55 166.44-13.9 164.99-15.25 162.34-15.25L162.34-15.25 160.78-15.25 160.78-21.25 162.28-21.25Q164.38-21.25 165.51-22.48 166.63-23.7 166.63-25.95L166.63-25.95Q166.63-27.9 165.53-29.05 164.44-30.2 162.44-30.2L162.44-30.2Q159.78-30.2 156.99-28.55L156.99-28.55 156.03-34Q159.34-35.7 163.63-35.7L163.63-35.7Q167.94-35.7 170.44-33.25 172.94-30.8 172.94-26.75L172.94-26.75Q172.94-21.1 168.19-18.55L168.19-18.55Z" opacity="1" transform="matrix(1,0,0,1,0,0)" fill="#ffffff" class="undefined-text-0" data-fill-palette-color="primary" id="text-0"></path></svg></g></svg></g></svg></g></svg></g><g><svg viewBox="0 0 200.61250636979324 200.61250636979324" height="200.61250636979324" width="200.61250636979324"><g><svg></svg></g><g id="icon-0"><svg viewBox="0 0 200.61250636979324 200.61250636979324" height="200.61250636979324" width="200.61250636979324"><g><path d="M0 100.306c0-55.398 44.909-100.306 100.306-100.306 55.398 0 100.306 44.909 100.307 100.306 0 55.398-44.909 100.306-100.307 100.307-55.398 0-100.306-44.909-100.306-100.307zM100.306 193.14c51.271 0 92.834-41.563 92.834-92.834 0-51.271-41.563-92.834-92.834-92.834-51.271 0-92.834 41.563-92.834 92.834 0 51.271 41.563 92.834 92.834 92.834z" data-fill-palette-color="accent" fill="#ffffff" stroke="transparent"></path><ellipse rx="99.30319065304765" ry="99.30319065304765" cx="100.30625318489662" cy="100.30625318489662" fill="#ffffff" stroke="transparent" stroke-width="0" fill-opacity="1" data-fill-palette-color="accent"></ellipse></g><g transform="matrix(1,0,0,1,43.305453376143326,43.304761005013916)"><svg viewBox="0 0 114.00159961750659 114.0029843597654" height="114.0029843597654" width="114.00159961750659"><g><svg xmlns="http://www.w3.org/2000/svg" xmlns:xlink="http://www.w3.org/1999/xlink" version="1.1" x="0" y="0" viewBox="5.412825107574463 5.195577621459961 79.76930236816406 79.77027130126953" enable-background="new 0 0 90 90" xml:space="preserve" height="114.0029843597654" width="114.00159961750659" class="icon-c-0" data-fill-palette-color="quaternary" id="c-0"><path d="M54.624 83.27c-10.792 1.801-22.246-1.411-30.727-8.272-8.062-6.522-13.088-16.744-12.728-27.17 0.349-10.096 5.499-20.182 14.078-25.707 8.769-5.647 20.783-5.62 29.498 0.129 8.154 5.379 12.661 15.857 9.907 25.391-1.424 4.931-4.572 9.475-9.052 12.082-4.663 2.714-10.561 3.268-15.615 1.341-4.544-1.733-8.418-5.448-9.851-10.154-1.47-4.826-0.243-10.416 3.327-14.027 3.452-3.492 8.998-4.743 13.484-2.567 4.259 2.065 6.884 7.148 5.307 11.755-0.85 2.483-2.859 4.611-5.423 5.317-2.69 0.741-5.774-0.221-7.439-2.493-1.629-2.222-1.495-5.503 0.597-7.389 1.054-0.95 2.599-1.429 3.984-1.015 0.41 0.122 2.233 0.566 2.058 1.209 0.087-0.652-1.341-0.82-1.755-0.934-1.29-0.356-2.733 0.004-3.719 0.904-1.739 1.586-1.995 4.459-0.597 6.34 1.417 1.906 4.102 2.721 6.348 1.971 2.287-0.765 3.875-3.013 4.245-5.344 0.746-4.703-3.812-8.759-8.323-8.569-4.774 0.201-8.548 4.373-9.111 8.971-1.056 8.621 8.8 14.488 16.466 12.536 8.546-2.177 12.86-12.372 10.766-20.465-2.34-9.045-11.891-14.664-20.877-14.543-9.785 0.131-18.28 7.23-21.955 16.011-4.038 9.649-2.194 21.17 4.201 29.364 6.485 8.309 16.93 13.113 27.352 13.664 5.766 0.305 11.749-0.537 17.004-3.006 4.955-2.328 8.907-6.258 11.976-10.734 6.303-9.194 8.662-20.938 6.135-31.824C79.845 17.355 61.052 3.689 41.936 5.329 23.164 6.939 7.154 22.991 5.551 41.756c-0.918 10.74 2.777 21.76 9.928 29.817 7.078 7.976 17.424 12.875 28.071 13.353 6.118 0.275 12.303-0.876 17.903-3.359-2.472 0.844-4.993 1.695-7.622 1.838 0.506-0.028 0.982-0.246 1.492-0.242-1.79-0.014-3.465 0.776-5.242 0.87 1.034-0.055 2.103-0.271 3.095-0.566 0.337-0.101 1.458-0.578 1.755-0.242-0.207-0.235-1.358 0.182-1.613 0.243-0.926 0.221-1.953 0.452-2.902 0.51 0.426-0.026 4.536-0.711 4.53-0.755 0.008 0.065-4.022 0.607-4.613 0.769 0.714-0.196 1.505-0.245 2.235-0.367 0.292-0.048 2.164-0.591 2.374-0.402C54.91 83.194 54.661 83.264 54.624 83.27 43.928 85.055 57.114 82.88 54.624 83.27z" fill="#333333" data-fill-palette-color="quaternary"></path></svg></g></svg></g></svg></g></svg></g></svg></g><defs></defs></svg><rect width="395.52" height="124.9045735443465" fill="none" stroke="none" visibility="hidden"></rect></g></svg></g></svg>